   <svg
                width="24"
                height="24"
                viewBox="0 0 25 24"
                fill="none"
                xmlns="http://www.w3.org/2000/svg"
              >
                <path
                  d="M22.845 12.2527C22.845 11.5049 22.7844 10.7532 22.655 10.0176H12.2798V14.2533H18.2212C17.9747 15.6195 17.1824 16.828 16.0225 17.5959V20.3443H19.5671C21.6487 18.4285 22.845 15.5993 22.845 12.2527Z"
                  fill="#4285F4"
                />
                <path
                  d="M12.2797 23.0003C15.2463 23.0003 17.7482 22.0262 19.5711 20.3449L16.0264 17.5964C15.0402 18.2674 13.767 18.6473 12.2837 18.6473C9.41403 18.6473 6.98091 16.7113 6.10785 14.1084H2.45007V16.9417C4.31738 20.6561 8.12067 23.0003 12.2797 23.0003Z"
                  fill="#34A853"
                />
                <path
                  d="M6.10385 14.1083C5.64307 12.7422 5.64307 11.2629 6.10385 9.89674V7.06348H2.45006C0.889937 10.1716 0.889937 13.8335 2.45006 16.9416L6.10385 14.1083Z"
                  fill="#FBBC04"
                />
                <path
                  d="M12.2797 5.35374C13.8479 5.32949 15.3636 5.91959 16.4993 7.00276L19.6398 3.86232C17.6512 1.99502 15.0119 0.968407 12.2797 1.00074C8.12067 1.00074 4.31738 3.34497 2.45007 7.06342L6.10383 9.89668C6.97281 7.28974 9.41001 5.35374 12.2797 5.35374Z"
                  fill="#EA4335"
                />
              </svg>